# xmcd
#
# Track frame offsets:
#	150
#	18365
#	37150
#	55972
#	70870
#	88077
#	99442
#	115190
#	127657
#	140500
#	149607
#	168895
#	186417
#	203925
#	213257
#	229822
#	242842
#	255337
#	271100
#	282175
#	294387
#	309500
#
# Disc length: 4302 seconds
#
# Revision: 0
# Processed by: cddbd v1.5.2PL0 Copyright (c) Steve Scherf et al.
# Submitted via: EasyCDDAExtractor 16.0.6.1
#
DISCID=4310cc16
DTITLE=Ξυλούρης Νίκος - Αξέχαστες επιτυχίες-Ξυλούρης Νίκος
DYEAR=1994
DGENRE=Έντεχνη λαϊκή
TTITLE0=Ξυλούρης Νίκος - Αυτό τον κόσμο τον καλό [Σ. Ξαρχάκος-Β. Ανδρεόπουλος]
TTITLE1=Ξυλούρης Νίκος - Γεννήθηκα [Γ. Μαρκόπουλος-Κ. Χ. Μύρης]
TTITLE2=Ξυλούρης Νίκος-χορωδία - Χίλια μύρια κύματα [Γ. Μαρκόπουλος-Κ. Χ. Μύρη
TTITLE2=ς]
TTITLE3=Ξυλούρης Νίκος - Ήτανε μια φορά [Σ. Ξαρχάκος-Κ. Φέρης]
TTITLE4=Ξυλούρης Νίκος-χορωδία - Μπήκαν στην πόλη οι οχτροί [Γ. Μαρκόπουλος-Γ.
TTITLE4=Σκούρτης]
TTITLE5=Ξυλούρης Νίκος-χορωδία - Ζαβαρακατρανέμια [Γ. Μαρκόπουλος]
TTITLE6=Ξυλούρης Νίκος-χορωδία - Αγρίμια κι αγριμάκια μου [Γ. Μαρκόπουλος-Ν. Ξ
TTITLE6=υλούρης]
TTITLE7=Ξυλούρης Νίκος-χορωδία - Πότε θα κάνει ξαστεριά [Γ. Μαρκόπουλος-Ν. Ξυλ
TTITLE7=ούρης]
TTITLE8=Ξυλούρης Νίκος-χορωδία - Ντιρλαντά [Π. Γκίνης]
TTITLE9=Ξυλούρης Νίκος - Γειά σου χαρά σου Βενετιά [Σ. Ξαρχάκος-Ν. Γκάτσος]
TTITLE10=Ξυλούρης Νίκος - Και να αδελφέ μου [Χ. Λεοντής-Γ. Ρίτσος]
TTITLE11=Ξυλούρης Νίκος-Θεοδωρίδης Χρύσανθος - Του θάνατου παράγγειλα [Χ. Χάλα
TTITLE11=ρης-Γ. Κακουλίδης]
TTITLE12=Ξυλούρης Νίκος-χορωδία - Ο Διγενής [Γ. Μαρκόπουλος-Ν. Ξυλούρης]
TTITLE13=Ξυλούρης Νίκος - Μπάρμπα Γιάννη Μακρυγιάννη [Σ. Ξαρχάκος-Γ. Ρίτσος]
TTITLE14=Ξυλούρης Νίκος-χορωδία - Φιλεντέμ [Ν. Ξυλούρης]
TTITLE15=Ξυλούρης Νίκος - Ο πραματευτής [Κ. Μουντάκης]
TTITLE16=Ξυλούρης Νίκος - Έβαλε ο Θεός σημάδι [Σ. Ξαρχάκος-Ν. Γκάτσος]
TTITLE17=Ξυλούρης Νίκος - Ο αντρειωμένος [Ουρ. Μελαμπιανάκη]
TTITLE18=Ξυλούρης Νίκος - Ο μικρός στρατιώτης [Λ. Κόκοτος-Δ. Χριστοδούλου]
TTITLE19=Ξυλούρης Νίκος - Ερωτικό τραγούδι (Παλληκαρού)[Γ. Μαρκόπουλος-Κ. Χ. Μ
TTITLE19=ύρης]
TTITLE20=Ξυλούρης Νίκος - Η ώρα τούτη [Χ. Χάλαρης-Γ. Κακουλίδης]
TTITLE21=Ξυλούρης Νίκος-χορωδία - Μπέρδε και μπέρδε [μ. κ στ. Ερ. Θαλασσινός-Ν
TTITLE21=Ξυλούρης]
EXTD=
EXTT0=
EXTT1=
EXTT2=
EXTT3=
EXTT4=
EXTT5=
EXTT6=
EXTT7=
EXTT8=
EXTT9=
EXTT10=
EXTT11=
EXTT12=
EXTT13=
EXTT14=
EXTT15=
EXTT16=
EXTT17=
EXTT18=
EXTT19=
EXTT20=
EXTT21=
PLAYORDER=
